# xmcd
# 
# Track frame offsets:
#     150
#     34332
#     112694
#     138528
#     162317
# 
# Disc length: 2549
# 
# Revision: 3
# Processed by: cddbd v1.5.2PL0 Copyright (c) Steve Scherf et al.
# Submitted via: fre:ac v1.0.27
# 
DISCID=3b09f305
DTITLE=Andrew Cyrille, Wadada Leo Smith, Bill Frisell - Lebroba
DYEAR=2018
DGENRE=Jazz
TTITLE0=Worried Woman
TTITLE1=Turiya: Alice Coltrane Meditations and Dreams: Love
TTITLE2=Lebroba
TTITLE3=TGD
TTITLE4=Pretty Beauty
EXTD=YEAR: 2018
EXTT0=
EXTT1=
EXTT2=
EXTT3=
EXTT4=
PLAYORDER=
